# xmcd CD database file
#
# Track frame offsets:
#	150
#	19465
#	38619
#	60655
#
# Disc length: 1029 seconds
#
# Revision: 0
# Processed by: cddbd v1.5.2PL0 Copyright (c) Steve Scherf et al.
# Submitted via: CDex 1.70beta2
#
DISCID=2c040304
DTITLE=ANTABUS - ANTABUS REACTION (2013 DEMO)
DYEAR=2013
DGENRE=Thrash Metal
TTITLE0=REBEL NO MORE
TTITLE1=CULTURAL DEMISE
TTITLE2=ANTABUS REACTION
TTITLE3=HIT THE LIGHTS (METALLICA COVER)
EXTD=YEAR: 2013
EXTT0=
EXTT1=
EXTT2=
EXTT3=
PLAYORDER=
